<svg width="57" height="57" viewBox="0 0 57 57" fill="none" xmlns="http://www.w3.org/2000/svg">
<path d="M57 28.5C57 44.2401 44.2401 57 28.5 57C12.7599 57 0 44.2401 0 28.5C0 12.7599 12.7599 0 28.5 0C44.2401 0 57 12.7599 57 28.5Z" fill="#0B6B0B"/>
<path d="M41.2037 16.3732C42.0655 16.998 42.2584 18.1996 41.6316 19.0587L26.2026 40.2062C25.8711 40.6628 25.3588 40.9452 24.7923 40.9932C24.2258 41.0413 23.6773 40.831 23.2795 40.4345L15.565 32.7445C14.8117 31.9935 14.8117 30.7739 15.565 30.023C16.3184 29.272 17.5419 29.272 18.2952 30.023L24.4126 36.1209L38.5157 16.7938C39.1425 15.9347 40.3479 15.7424 41.2097 16.3672L41.2037 16.3732Z" fill="#344154"/>
</svg>
