<svg width="57" height="57" viewBox="0 0 57 57" fill="none" xmlns="http://www.w3.org/2000/svg">
<path d="M57 28.5C57 44.2401 44.2401 57 28.5 57C12.7599 57 0 44.2401 0 28.5C0 12.7599 12.7599 0 28.5 0C44.2401 0 57 12.7599 57 28.5Z" fill="#8E191B"/>
<path d="M22.5824 20.4406C21.9965 19.8547 21.0449 19.8547 20.459 20.4406C19.873 21.0266 19.873 21.9781 20.459 22.5641L26.8996 29L20.4637 35.4406C19.8777 36.0266 19.8777 36.9781 20.4637 37.5641C21.0496 38.15 22.0012 38.15 22.5871 37.5641L29.023 31.1234L35.4637 37.5594C36.0496 38.1453 37.0012 38.1453 37.5871 37.5594C38.173 36.9734 38.173 36.0219 37.5871 35.4359L31.1465 29L37.5824 22.5594C38.1684 21.9734 38.1684 21.0219 37.5824 20.4359C36.9965 19.85 36.0449 19.85 35.459 20.4359L29.023 26.8766L22.5824 20.4406Z" fill="#344154"/>
</svg>
