<svg width="60" height="60" viewBox="0 0 60 60" fill="none" xmlns="http://www.w3.org/2000/svg">
<g opacity="0.6">
<path d="M30.795 23.4713C22.3575 23.4713 16.9587 25.6775 16.9587 25.6775C16.9587 25.6775 12.4462 22.6363 12.605 19.0188C12.7637 15.4013 17.1175 11.6637 17.0987 10.9687C17.08 10.2737 15.13 10.65 15.05 9.59625C14.97 8.5425 17.535 6.455 16.5012 5.72C15.4675 4.985 7.39746 8.42375 7.39746 19.7538C7.39746 28.9875 13.66 31.145 14.315 32.655C14.705 33.5525 14.3112 43.055 17.8525 49.1738C20.6962 54.0838 26.8312 54.525 30.9137 54.3425C37.135 54.065 43.1587 52.5137 44.6887 46.65C46.2187 40.7862 44.9875 34.1663 45.5837 32.8938C46.18 31.6213 53.3337 26.1188 52.5412 18.5213C51.6475 9.93375 45.2912 4.29625 43.1587 6.19625C42.245 7.0125 44.8487 8.92125 44.7287 9.93375C44.6087 10.9463 43.2587 10.1338 43.04 11.1863C42.8212 12.2388 47.5125 15.58 47.055 19.515C46.5975 23.4525 44.51 25.28 43.4775 25.34C42.445 25.4 36.3012 23.4713 30.795 23.4713Z" stroke="white" stroke-linecap="round" stroke-linejoin="round"/>
<path d="M22.7588 39.9975C26.1776 39.42 27.9113 42.8175 27.9238 45.5012C27.9363 48.185 26.5688 49.4737 24.4676 49.4875C22.3663 49.5012 20.0738 47.6162 19.9251 44.1325C19.7751 40.6475 21.6338 40.1875 22.7588 39.9975ZM39.0188 39.8312C35.6001 39.255 33.8663 42.6512 33.8526 45.3362C33.8388 48.0212 35.2088 49.3087 37.3101 49.3225C39.4113 49.3362 41.7026 47.4512 41.8526 43.9662C42.0026 40.4812 40.1438 40.0212 39.0188 39.8312Z" stroke="white" stroke-linecap="round" stroke-linejoin="round"/>
</g>
</svg>
